<svg width="234" height="82" viewBox="0 0 234 82" fill="none" xmlns="http://www.w3.org/2000/svg">
    <g clip-path="url(#clip0_0_1)">
        <path d="M82 6.46934C82 4.37161 80.2996 2.67123 78.2019 2.67123H41L37.6531 54.2499L82 50.9029V6.46934Z" fill="#424242"/>
        <path d="M3.79811 2.67123C1.70038 2.67123 0 4.37161 0 6.46934V50.9029L41 54.2499V2.67123H3.79811Z" fill="#707070"/>
        <path d="M52.308 64.9017L37.6531 61.5547L41 76.818H54.0343L52.308 64.9017Z" fill="#707070"/>
        <path d="M29.692 64.9017L27.9657 76.818H41V61.5548L29.692 64.9017Z" fill="#B4B4B4"/>
        <path d="M37.6531 50.903L41 64.9019H78.2019C80.2996 64.9019 82 63.2015 82 61.1038V50.903H37.6531Z" fill="#B4B4B4"/>
        <path d="M0 50.903V61.1038C0 63.2014 1.70038 64.9019 3.79811 64.9019H41V50.903H0Z" fill="#E0E0E0"/>
        <path d="M61.1988 74.3077H41L37.6531 76.818L41 79.3281H61.1988V74.3077Z" fill="#424242"/>
        <path d="M41 74.3083H20.8013V79.3288H41V74.3083Z" fill="#707070"/>
        <path d="M44.5669 55.3921H41L39.3265 57.9024L41 60.4125H44.5669V55.3921Z" fill="#424242"/>
        <path d="M41.0007 55.3915H37.4338V60.4119H41.0007V55.3915Z" fill="#707070"/>
        <path d="M69.2554 11.3033H55.1277L51.7808 26.7871L55.1277 42.2708H69.2554V11.3033Z" fill="#FFBA00"/>
        <path d="M41 11.3033L37.6531 26.7871L41 42.2708H55.1277V11.3033H41Z" fill="#FDE09C"/>
        <path d="M41 11.3033H26.8723L23.5254 26.7871L26.8723 42.2708H41V11.3033Z" fill="#FFBA00"/>
        <path d="M26.8725 11.304H12.7451V42.2715H26.8725V11.304Z" fill="#FDE09C"/>
        <path d="M34.5979 16.3174H26.8723L25.1989 18.8275L26.8723 21.3378H34.5979V16.3174Z" fill="#FF8E00"/>
        <path d="M34.5979 24.2768H26.8723L25.1989 26.7871L26.8723 29.2972H34.5979V24.2768Z" fill="#FF8E00"/>
        <path d="M34.5979 32.2364H26.8723L25.1989 34.7465L26.8723 37.2568H34.5979V32.2364Z" fill="#FF8E00"/>
        <path d="M26.8709 16.3177H19.1462V21.3381H26.8709V16.3177Z" fill="#FFBA00"/>
        <path d="M26.8709 24.2766H19.1462V29.2971H26.8709V24.2766Z" fill="#FFBA00"/>
        <path d="M26.8709 32.2358H19.1462V37.2562H26.8709V32.2358Z" fill="#FFBA00"/>
        <path d="M62.8533 16.3174H55.1277L53.4542 18.8275L55.1277 21.3378H62.8533V16.3174Z" fill="#FF8E00"/>
        <path d="M62.8533 24.2768H55.1277L53.4542 26.7871L55.1277 29.2972H62.8533V24.2768Z" fill="#FF8E00"/>
        <path d="M62.8533 32.2364H55.1277L53.4542 34.7465L55.1277 37.2568H62.8533V32.2364Z" fill="#FF8E00"/>
        <path d="M55.1274 16.3177H47.4027V21.3381H55.1274V16.3177Z" fill="#FFBA00"/>
        <path d="M55.1274 24.2766H47.4027V29.2971H55.1274V24.2766Z" fill="#FFBA00"/>
        <path d="M55.1274 32.2358H47.4027V37.2562H55.1274V32.2358Z" fill="#FFBA00"/>
    </g>
    <path d="M95.52 24.508H102.384V55H95.52V24.508ZM117.538 24.508C118.066 25.476 118.667 26.6787 119.342 28.116C120.046 29.524 120.765 31.064 121.498 32.736C122.261 34.3787 123.009 36.0653 123.742 37.796C124.475 39.5267 125.165 41.1547 125.81 42.68C126.455 41.1547 127.145 39.5267 127.878 37.796C128.611 36.0653 129.345 34.3787 130.078 32.736C130.841 31.064 131.559 29.524 132.234 28.116C132.938 26.6787 133.554 25.476 134.082 24.508H140.33C140.623 26.532 140.887 28.8053 141.122 31.328C141.386 33.8213 141.606 36.432 141.782 39.16C141.987 41.8587 142.163 44.572 142.31 47.3C142.486 50.028 142.633 52.5947 142.75 55H136.062C135.974 52.0373 135.857 48.8107 135.71 45.32C135.563 41.8293 135.343 38.3093 135.05 34.76C134.522 35.992 133.935 37.356 133.29 38.852C132.645 40.348 131.999 41.844 131.354 43.34C130.738 44.836 130.137 46.2733 129.55 47.652C128.963 49.0013 128.465 50.16 128.054 51.128H123.258C122.847 50.16 122.349 49.0013 121.762 47.652C121.175 46.2733 120.559 44.836 119.914 43.34C119.298 41.844 118.667 40.348 118.022 38.852C117.377 37.356 116.79 35.992 116.262 34.76C115.969 38.3093 115.749 41.8293 115.602 45.32C115.455 48.8107 115.338 52.0373 115.25 55H108.562C108.679 52.5947 108.811 50.028 108.958 47.3C109.134 44.572 109.31 41.8587 109.486 39.16C109.691 36.432 109.911 33.8213 110.146 31.328C110.41 28.8053 110.689 26.532 110.982 24.508H117.538ZM148.93 55V24.508H169.522V30.272H155.794V36.256H167.982V41.888H155.794V49.236H170.534V55H148.93ZM189.518 55.616C184.56 55.616 180.776 54.2373 178.166 51.48C175.584 48.7227 174.294 44.8067 174.294 39.732C174.294 37.2093 174.69 34.9653 175.482 33C176.274 31.0053 177.359 29.3333 178.738 27.984C180.116 26.6053 181.759 25.564 183.666 24.86C185.572 24.156 187.64 23.804 189.87 23.804C191.16 23.804 192.334 23.9067 193.39 24.112C194.446 24.288 195.37 24.508 196.162 24.772C196.954 25.0067 197.614 25.256 198.142 25.52C198.67 25.784 199.051 25.9893 199.286 26.136L197.306 31.68C196.367 31.1813 195.267 30.756 194.006 30.404C192.774 30.052 191.366 29.876 189.782 29.876C188.726 29.876 187.684 30.052 186.658 30.404C185.66 30.756 184.766 31.328 183.974 32.12C183.211 32.8827 182.595 33.88 182.126 35.112C181.656 36.344 181.422 37.84 181.422 39.6C181.422 41.008 181.568 42.328 181.862 43.56C182.184 44.7627 182.683 45.804 183.358 46.684C184.062 47.564 184.971 48.268 186.086 48.796C187.2 49.2947 188.55 49.544 190.134 49.544C191.131 49.544 192.026 49.4853 192.818 49.368C193.61 49.2507 194.314 49.1187 194.93 48.972C195.546 48.796 196.088 48.6053 196.558 48.4C197.027 48.1947 197.452 48.004 197.834 47.828L199.726 53.328C198.758 53.9147 197.394 54.4427 195.634 54.912C193.874 55.3813 191.835 55.616 189.518 55.616ZM225.807 55C225.484 53.944 225.118 52.8587 224.707 51.744C224.326 50.6293 223.944 49.5147 223.563 48.4H211.683C211.302 49.5147 210.906 50.6293 210.495 51.744C210.114 52.8587 209.762 53.944 209.439 55H202.311C203.455 51.7147 204.54 48.6787 205.567 45.892C206.594 43.1053 207.591 40.48 208.559 38.016C209.556 35.552 210.524 33.22 211.463 31.02C212.431 28.7907 213.428 26.62 214.455 24.508H221.011C222.008 26.62 222.991 28.7907 223.959 31.02C224.927 33.22 225.895 35.552 226.863 38.016C227.86 40.48 228.872 43.1053 229.899 45.892C230.926 48.6787 232.011 51.7147 233.155 55H225.807ZM217.579 31.416C217.432 31.856 217.212 32.4573 216.919 33.22C216.626 33.9827 216.288 34.8627 215.907 35.86C215.526 36.8573 215.1 37.9573 214.631 39.16C214.191 40.3627 213.736 41.624 213.267 42.944H221.935C221.466 41.624 221.011 40.3627 220.571 39.16C220.131 37.9573 219.706 36.8573 219.295 35.86C218.914 34.8627 218.576 33.9827 218.283 33.22C217.99 32.4573 217.755 31.856 217.579 31.416Z" fill="white"/>
    <defs>
        <clipPath id="clip0_0_1">
            <rect width="82" height="82" fill="white"/>
        </clipPath>
    </defs>
</svg>
